<?xml version="1.0" standalone="no"?>
<!DOCTYPE svg PUBLIC "-//W3C//DTD SVG 20010904//EN"
 "http://www.w3.org/TR/2001/REC-SVG-20010904/DTD/svg10.dtd">
<svg version="1.0" xmlns="http://www.w3.org/2000/svg"
 width="763.000000pt" height="763.000000pt" viewBox="0 0 763.000000 763.000000"
 preserveAspectRatio="xMidYMid meet">
<metadata>
Created by potrace 1.11, written by Peter Selinger 2001-2013
</metadata>
<g transform="translate(0.000000,763.000000) scale(0.100000,-0.100000)"
fill="#000000" stroke="none">
<path d="M0 3815 l0 -2475 3815 0 3815 0 0 2475 0 2475 -3815 0 -3815 0 0
-2475z m2108 1913 c194 -514 963 -2532 966 -2535 2 -2 39 19 82 46 128 82 118
66 88 141 -31 75 -43 192 -25 257 41 150 218 245 340 181 68 -35 85 -65 89
-157 3 -62 0 -88 -16 -123 -25 -58 -74 -113 -128 -144 -24 -14 -44 -28 -44
-31 0 -8 331 -636 340 -646 12 -13 68 125 86 214 23 116 16 317 -14 375 -21
41 -55 64 -95 64 -33 0 -67 11 -67 21 0 5 86 9 190 9 105 0 190 -4 190 -9 0
-11 -25 -21 -55 -21 -35 0 -83 -46 -94 -88 -5 -20 -12 -100 -15 -177 -7 -164
-23 -241 -73 -349 l-37 -78 29 -55 c41 -75 83 -123 121 -139 65 -27 112 16
123 113 4 35 11 58 20 61 20 7 7 -96 -18 -149 l-19 -39 214 0 214 0 -2 1623
-3 1622 -258 3 -258 2 3 28 3 27 840 0 c754 0 852 -2 959 -18 306 -46 570
-146 796 -301 105 -72 303 -272 377 -381 155 -231 249 -489 284 -789 19 -161
6 -473 -25 -622 -68 -322 -204 -581 -416 -794 -248 -248 -562 -393 -962 -446
-106 -14 -285 -16 -1308 -19 -652 -1 -1411 0 -1687 3 l-503 5 0 28 0 29 253 2
254 3 -240 636 -240 636 -337 6 c-379 6 -750 -1 -750 -15 0 -5 -104 -284 -231
-621 -128 -337 -234 -620 -236 -630 -5 -16 12 -17 251 -17 l256 0 0 -30 0 -30
-495 0 -495 0 0 30 0 30 203 0 202 0 49 133 c27 72 305 812 618 1642 312 831
570 1516 573 1523 3 7 24 12 59 12 l55 0 19 -52z m-112 -3572 c13 -15 24 -35
24 -45 0 -24 -37 -71 -57 -71 -9 0 -13 -6 -10 -14 12 -32 82 -118 101 -126 17
-7 14 -9 -16 -9 -34 -1 -40 4 -87 69 -66 90 -81 91 -81 6 0 -42 4 -66 13 -69
6 -3 -8 -6 -32 -6 -35 -1 -42 2 -33 11 13 13 17 245 4 264 -4 6 -14 14 -22 17
-8 4 27 5 79 4 88 -3 95 -5 117 -31z m434 12 c0 -17 -3 -19 -12 -10 -7 7 -38
12 -70 12 l-58 0 0 -60 0 -60 44 0 c35 0 48 5 60 22 15 21 16 20 16 -32 0 -51
-1 -53 -13 -30 -10 21 -21 26 -60 28 l-47 3 0 -70 0 -71 56 0 c48 0 59 4 85
29 16 16 29 28 29 27 0 -2 -5 -17 -11 -35 l-11 -31 -104 0 c-100 0 -104 1 -94
19 11 21 14 211 4 248 -3 12 -16 24 -28 26 -11 2 32 5 97 6 114 1 117 0 117
-21z m365 -76 c21 -53 51 -121 66 -149 l26 -53 -38 0 c-31 0 -36 3 -32 19 3
10 -3 33 -11 50 -15 29 -20 31 -71 31 -51 0 -56 -2 -71 -31 -8 -17 -14 -40
-11 -50 4 -15 0 -19 -25 -19 -26 0 -28 2 -15 14 8 8 40 76 72 150 32 75 61
136 64 136 3 0 24 -44 46 -98z m355 85 c-24 -12 -25 -16 -28 -136 -3 -136 -1
-141 54 -141 46 0 90 18 102 43 14 28 15 7 2 -27 -9 -26 -11 -26 -117 -26 -83
0 -104 3 -95 12 8 8 12 54 12 140 0 124 -1 129 -22 138 -17 6 -5 9 47 9 63 1
67 -1 45 -12z m720 -14 c-1 -24 -2 -25 -11 -10 -8 13 -23 17 -69 17 l-60 0 0
-60 0 -60 44 0 c35 0 48 5 60 22 15 21 16 20 15 -32 0 -30 -3 -48 -6 -40 -9
26 -36 40 -75 40 l-38 0 0 -70 0 -70 56 0 c49 0 59 4 84 30 l28 30 -11 -35
-10 -35 -101 0 -101 0 3 140 c3 138 3 140 -20 149 -16 7 12 10 95 10 l117 1 0
-27z m360 -23 l-1 -45 -14 33 c-16 36 -56 56 -93 47 -56 -14 -40 -72 30 -110
74 -39 98 -63 98 -97 0 -65 -47 -96 -127 -82 -27 4 -51 7 -55 6 -5 -1 -8 15
-8 36 l1 37 15 -27 c21 -39 88 -54 120 -27 32 26 12 62 -60 110 -72 47 -90 74
-80 115 10 41 42 55 111 52 l63 -3 0 -45z m420 24 c0 -23 -1 -24 -16 -10 -8 9
-31 16 -50 16 l-34 0 0 -128 c0 -86 4 -132 12 -140 9 -9 2 -12 -32 -12 -34 0
-41 3 -32 12 8 8 12 54 12 140 l0 128 -32 0 c-38 0 -50 -7 -66 -35 -10 -18
-11 -16 -12 18 l0 37 125 0 125 0 0 -26z m309 -82 c24 -59 54 -126 67 -149
l23 -43 -39 0 c-32 0 -37 3 -33 19 3 10 -3 33 -11 50 -15 29 -20 31 -71 31
-50 0 -56 -2 -70 -30 -18 -35 -19 -57 -2 -63 6 -3 -5 -6 -26 -6 -33 -1 -37 1
-24 13 8 8 40 76 72 150 32 75 61 136 64 136 3 0 26 -49 50 -108z m441 76 c0
-32 0 -32 -16 -10 -11 16 -25 22 -50 22 l-35 0 3 -140 3 -140 -33 0 c-29 0
-32 2 -22 19 5 11 10 74 10 141 l0 121 -42 -3 c-34 -2 -45 -8 -55 -28 -12 -24
-13 -24 -13 13 l0 37 125 0 125 0 0 -32z m369 0 c0 -30 -1 -31 -9 -10 -8 20
-16 22 -75 22 l-65 0 0 -60 0 -60 49 0 c40 0 53 4 65 22 15 22 16 21 16 -27
l0 -49 -21 23 c-16 17 -30 21 -62 19 l-42 -3 0 -65 0 -65 58 -3 c51 -3 60 0
82 24 27 30 30 28 15 -10 -9 -26 -10 -26 -117 -25 -60 0 -102 3 -95 6 9 3 12
41 12 139 0 130 -1 135 -22 144 -16 6 14 9 95 9 l117 1 -1 -32z m-4101 -100
c3 -17 -29 -18 -556 -18 -534 0 -779 6 -766 19 9 10 433 17 894 17 396 -1 425
-2 428 -18z m5537 4 c77 -15 -164 -22 -737 -22 -458 0 -558 2 -558 13 0 8 3
17 8 22 9 10 1231 -3 1287 -13z"/>
<path d="M4960 4094 l0 -1626 333 5 c364 5 441 13 617 69 313 100 531 297 661
598 116 268 172 678 148 1079 -32 538 -161 895 -418 1152 -95 95 -174 152
-290 209 -211 105 -421 139 -848 140 l-203 0 0 -1626z"/>
<path d="M1576 4502 c-137 -361 -251 -663 -253 -669 -4 -10 100 -13 501 -13
278 0 506 3 506 7 0 11 -492 1317 -500 1325 -3 5 -118 -288 -254 -650z"/>
<path d="M3416 3789 c-73 -58 -78 -147 -16 -297 23 -56 45 -102 49 -102 19 0
115 76 135 108 66 100 53 257 -25 297 -42 22 -111 19 -143 -6z"/>
<path d="M3235 3263 c-53 -33 -135 -114 -135 -131 0 -8 55 -160 123 -338 l122
-324 111 0 c106 0 113 1 150 28 21 16 44 35 51 43 9 11 -28 89 -180 381 -106
203 -194 368 -197 367 -3 0 -23 -12 -45 -26z"/>
<path d="M3647 2495 l-28 -25 51 0 50 0 -16 25 c-20 31 -22 31 -57 0z"/>
<path d="M1870 2105 c0 -62 1 -65 24 -65 32 0 76 37 76 64 0 38 -28 66 -66 66
l-34 0 0 -65z"/>
<path d="M2711 2071 c-11 -27 -21 -54 -21 -60 0 -6 20 -11 45 -11 31 0 45 4
45 14 0 14 -38 106 -44 106 -2 0 -13 -22 -25 -49z"/>
<path d="M4871 2071 c-11 -27 -21 -54 -21 -60 0 -6 21 -11 50 -11 l50 0 -16
38 c-9 20 -20 47 -25 60 -5 12 -10 22 -13 22 -2 0 -13 -22 -25 -49z"/>
</g>
</svg>
